<svg width="328" height="200" viewBox="0 0 328 200" fill="none" xmlns="http://www.w3.org/2000/svg">
<rect x="0.5" y="0.5" width="327" height="199" rx="4.5" fill="white"/>
<path d="M162 78V61.7L156.8 66.9L154 64L164 54L174 64L171.2 66.9L166 61.7V78H162ZM152 86C150.9 86 149.958 85.608 149.174 84.824C148.39 84.04 147.999 83.0987 148 82V76H152V82H176V76H180V82C180 83.1 179.608 84.042 178.824 84.826C178.04 85.61 177.099 86.0013 176 86H152Z" fill="#BDBDBD"/>
<path d="M28.7031 109.345H26.1807L26.167 108.285H28.457C28.8353 108.285 29.1657 108.221 29.4482 108.094C29.7308 107.966 29.9495 107.784 30.1045 107.547C30.264 107.305 30.3438 107.018 30.3438 106.686C30.3438 106.321 30.2731 106.025 30.1318 105.797C29.9951 105.564 29.7832 105.396 29.4961 105.291C29.2135 105.182 28.8535 105.127 28.416 105.127H26.4746V114H25.1553V104.047H28.416C28.9264 104.047 29.3822 104.099 29.7832 104.204C30.1842 104.304 30.5238 104.464 30.8018 104.683C31.0843 104.897 31.2985 105.17 31.4443 105.503C31.5902 105.836 31.6631 106.234 31.6631 106.699C31.6631 107.109 31.5583 107.481 31.3486 107.813C31.139 108.142 30.8473 108.41 30.4736 108.62C30.1045 108.83 29.6715 108.964 29.1748 109.023L28.7031 109.345ZM28.6416 114H25.6611L26.4062 112.927H28.6416C29.0609 112.927 29.4163 112.854 29.708 112.708C30.0042 112.562 30.2298 112.357 30.3848 112.093C30.5397 111.824 30.6172 111.507 30.6172 111.143C30.6172 110.773 30.5511 110.454 30.4189 110.186C30.2868 109.917 30.0794 109.709 29.7969 109.563C29.5143 109.418 29.1497 109.345 28.7031 109.345H26.8232L26.8369 108.285H29.4072L29.6875 108.668C30.166 108.709 30.5716 108.846 30.9043 109.078C31.237 109.306 31.4899 109.598 31.6631 109.953C31.8408 110.309 31.9297 110.701 31.9297 111.129C31.9297 111.749 31.793 112.273 31.5195 112.701C31.2507 113.125 30.8701 113.449 30.3779 113.672C29.8857 113.891 29.307 114 28.6416 114ZM35.0537 111.997L38.4648 106.604H39.7363V114H38.4648V108.606L35.0537 114H33.7959V106.604H35.0537V111.997ZM46.5107 103.384H47.5498C47.5498 103.83 47.4814 104.186 47.3447 104.45C47.208 104.71 47.0212 104.91 46.7842 105.052C46.5518 105.193 46.2874 105.3 45.9912 105.373C45.6995 105.446 45.3965 105.517 45.082 105.585C44.6901 105.667 44.3255 105.797 43.9883 105.975C43.6556 106.148 43.3685 106.394 43.127 106.713C42.89 107.032 42.7145 107.447 42.6006 107.957C42.4912 108.467 42.4616 109.099 42.5117 109.851V110.479H41.4727V109.851C41.4727 109.007 41.5524 108.271 41.7119 107.643C41.876 107.014 42.1061 106.483 42.4023 106.05C42.6986 105.617 43.0495 105.273 43.4551 105.018C43.8652 104.762 44.3164 104.587 44.8086 104.491C45.1641 104.423 45.4694 104.35 45.7246 104.272C45.9798 104.19 46.1735 104.081 46.3057 103.944C46.4424 103.808 46.5107 103.621 46.5107 103.384ZM45.0137 107.027C45.4967 107.027 45.9274 107.112 46.3057 107.28C46.6839 107.449 47.0052 107.684 47.2695 107.984C47.5339 108.285 47.7344 108.641 47.8711 109.051C48.0124 109.456 48.083 109.898 48.083 110.377V110.527C48.083 111.042 48.0078 111.521 47.8574 111.963C47.7116 112.4 47.4951 112.783 47.208 113.111C46.9255 113.435 46.5791 113.688 46.1689 113.87C45.7633 114.052 45.3008 114.144 44.7812 114.144C44.2617 114.144 43.7969 114.052 43.3867 113.87C42.9811 113.688 42.6348 113.435 42.3477 113.111C42.0605 112.783 41.8418 112.4 41.6914 111.963C41.5456 111.521 41.4727 111.042 41.4727 110.527V110.377C41.4727 110.263 41.4932 110.151 41.5342 110.042C41.5752 109.933 41.6253 109.821 41.6846 109.707C41.7484 109.593 41.8053 109.472 41.8555 109.345C42.0241 108.935 42.2542 108.554 42.5459 108.203C42.8421 107.852 43.1953 107.57 43.6055 107.355C44.0202 107.137 44.4896 107.027 45.0137 107.027ZM44.7676 108.06C44.3027 108.06 43.9199 108.167 43.6191 108.381C43.3229 108.595 43.1019 108.88 42.9561 109.235C42.8102 109.586 42.7373 109.967 42.7373 110.377V110.527C42.7373 110.874 42.7783 111.202 42.8604 111.512C42.9424 111.822 43.0654 112.097 43.2295 112.339C43.3981 112.576 43.61 112.763 43.8652 112.899C44.125 113.036 44.4303 113.104 44.7812 113.104C45.1322 113.104 45.4352 113.036 45.6904 112.899C45.9456 112.763 46.1553 112.576 46.3193 112.339C46.4834 112.097 46.6064 111.822 46.6885 111.512C46.7705 111.202 46.8115 110.874 46.8115 110.527V110.377C46.8115 110.067 46.7705 109.773 46.6885 109.495C46.6064 109.217 46.4811 108.971 46.3125 108.757C46.1484 108.543 45.9365 108.374 45.6768 108.251C45.4215 108.123 45.1185 108.06 44.7676 108.06ZM52.5879 114.137C52.0729 114.137 51.6058 114.05 51.1865 113.877C50.7718 113.699 50.4141 113.451 50.1133 113.132C49.8171 112.813 49.5892 112.435 49.4297 111.997C49.2702 111.56 49.1904 111.081 49.1904 110.562V110.274C49.1904 109.673 49.2793 109.137 49.457 108.668C49.6348 108.194 49.8763 107.793 50.1816 107.465C50.487 107.137 50.8333 106.888 51.2207 106.72C51.6081 106.551 52.0091 106.467 52.4238 106.467C52.9525 106.467 53.4082 106.558 53.791 106.74C54.1784 106.923 54.4951 107.178 54.7412 107.506C54.9873 107.829 55.1696 108.212 55.2881 108.654C55.4066 109.092 55.4658 109.57 55.4658 110.09V110.657H49.9424V109.625H54.2012V109.529C54.1829 109.201 54.1146 108.882 53.9961 108.572C53.8822 108.262 53.6999 108.007 53.4492 107.807C53.1986 107.606 52.8568 107.506 52.4238 107.506C52.1367 107.506 51.8724 107.567 51.6309 107.69C51.3893 107.809 51.182 107.987 51.0088 108.224C50.8356 108.461 50.7012 108.75 50.6055 109.092C50.5098 109.434 50.4619 109.828 50.4619 110.274V110.562C50.4619 110.912 50.5098 111.243 50.6055 111.553C50.7057 111.858 50.8493 112.127 51.0361 112.359C51.2275 112.592 51.4577 112.774 51.7266 112.906C52 113.038 52.3099 113.104 52.6562 113.104C53.1029 113.104 53.4811 113.013 53.791 112.831C54.1009 112.649 54.3721 112.405 54.6045 112.1L55.3701 112.708C55.2106 112.95 55.0078 113.18 54.7617 113.398C54.5156 113.617 54.2126 113.795 53.8525 113.932C53.4971 114.068 53.0755 114.137 52.5879 114.137ZM58.207 108.025V116.844H56.9355V106.604H58.0977L58.207 108.025ZM63.1904 110.24V110.384C63.1904 110.922 63.1266 111.421 62.999 111.881C62.8714 112.337 62.6846 112.733 62.4385 113.07C62.1969 113.408 61.8984 113.67 61.543 113.856C61.1875 114.043 60.7796 114.137 60.3193 114.137C59.8499 114.137 59.4352 114.059 59.0752 113.904C58.7152 113.749 58.4098 113.524 58.1592 113.228C57.9085 112.931 57.708 112.576 57.5576 112.161C57.4118 111.746 57.3115 111.279 57.2568 110.76V109.994C57.3115 109.447 57.4141 108.957 57.5645 108.524C57.7148 108.091 57.9131 107.722 58.1592 107.417C58.4098 107.107 58.7129 106.872 59.0684 106.713C59.4238 106.549 59.834 106.467 60.2988 106.467C60.7637 106.467 61.1761 106.558 61.5361 106.74C61.8962 106.918 62.1992 107.173 62.4453 107.506C62.6914 107.839 62.876 108.237 62.999 108.702C63.1266 109.162 63.1904 109.675 63.1904 110.24ZM61.9189 110.384V110.24C61.9189 109.871 61.8802 109.525 61.8027 109.201C61.7253 108.873 61.6045 108.586 61.4404 108.34C61.2809 108.089 61.0758 107.893 60.8252 107.752C60.5745 107.606 60.276 107.533 59.9297 107.533C59.6107 107.533 59.3327 107.588 59.0957 107.697C58.8633 107.807 58.665 107.955 58.501 108.142C58.3369 108.324 58.2025 108.534 58.0977 108.771C57.9974 109.003 57.9222 109.244 57.8721 109.495V111.266C57.9632 111.585 58.0908 111.885 58.2549 112.168C58.4189 112.446 58.6377 112.672 58.9111 112.845C59.1846 113.013 59.5286 113.098 59.9434 113.098C60.2852 113.098 60.5791 113.027 60.8252 112.886C61.0758 112.74 61.2809 112.542 61.4404 112.291C61.6045 112.04 61.7253 111.753 61.8027 111.43C61.8802 111.102 61.9189 110.753 61.9189 110.384ZM66.1777 106.604V114H64.9062V106.604H66.1777ZM64.8105 104.642C64.8105 104.437 64.8721 104.263 64.9951 104.122C65.1227 103.981 65.3096 103.91 65.5557 103.91C65.7972 103.91 65.9818 103.981 66.1094 104.122C66.2415 104.263 66.3076 104.437 66.3076 104.642C66.3076 104.838 66.2415 105.006 66.1094 105.147C65.9818 105.284 65.7972 105.353 65.5557 105.353C65.3096 105.353 65.1227 105.284 64.9951 105.147C64.8721 105.006 64.8105 104.838 64.8105 104.642ZM71.2227 106.604V114H69.9512V106.604H71.2227ZM73.7041 106.604V107.629H67.5176V106.604H73.7041ZM75.9873 109.146H78.209C78.806 109.146 79.3096 109.251 79.7197 109.461C80.1299 109.666 80.4398 109.951 80.6494 110.315C80.8636 110.675 80.9707 111.086 80.9707 111.546C80.9707 111.888 80.9115 112.209 80.793 112.51C80.6745 112.806 80.4967 113.066 80.2598 113.289C80.0273 113.512 79.738 113.688 79.3916 113.815C79.0498 113.938 78.6556 114 78.209 114H75.0645V106.604H76.3291V112.961H78.209C78.5736 112.961 78.8652 112.895 79.084 112.763C79.3027 112.631 79.46 112.46 79.5557 112.25C79.6514 112.04 79.6992 111.822 79.6992 111.594C79.6992 111.37 79.6514 111.152 79.5557 110.938C79.46 110.723 79.3027 110.546 79.084 110.404C78.8652 110.258 78.5736 110.186 78.209 110.186H75.9873V109.146ZM94.5264 110.432V110.575C94.5264 111.095 94.4694 111.573 94.3555 112.011C94.2415 112.444 94.0706 112.82 93.8428 113.139C93.6195 113.458 93.3415 113.706 93.0088 113.884C92.6761 114.057 92.291 114.144 91.8535 114.144C91.4935 114.144 91.1768 114.096 90.9033 114C90.6299 113.9 90.3975 113.756 90.2061 113.569C90.0192 113.382 89.8688 113.159 89.7549 112.899C89.6455 112.635 89.5703 112.339 89.5293 112.011V108.729C89.5703 108.379 89.6455 108.064 89.7549 107.786C89.8688 107.508 90.0192 107.271 90.2061 107.075C90.3975 106.879 90.6276 106.729 90.8965 106.624C91.1654 106.519 91.4798 106.467 91.8398 106.467C92.1953 106.467 92.5143 106.531 92.7969 106.658C93.084 106.781 93.3346 106.959 93.5488 107.191C93.7676 107.424 93.9476 107.704 94.0889 108.032C94.2347 108.356 94.3441 108.72 94.417 109.126C94.4899 109.532 94.5264 109.967 94.5264 110.432ZM93.2617 110.575V110.432C93.2617 110.113 93.2389 109.81 93.1934 109.522C93.1523 109.231 93.0863 108.964 92.9951 108.723C92.9085 108.477 92.7946 108.262 92.6533 108.08C92.512 107.898 92.3411 107.757 92.1406 107.656C91.9447 107.556 91.7191 107.506 91.4639 107.506C91.1904 107.506 90.9626 107.54 90.7803 107.608C90.6025 107.677 90.4635 107.768 90.3633 107.882C90.263 107.991 90.1901 108.107 90.1445 108.23V112.517C90.1992 112.617 90.279 112.713 90.3838 112.804C90.4886 112.89 90.6299 112.963 90.8076 113.022C90.9854 113.077 91.2087 113.104 91.4775 113.104C91.7965 113.104 92.0677 113.041 92.291 112.913C92.5189 112.781 92.7035 112.599 92.8447 112.366C92.9906 112.134 93.0954 111.865 93.1592 111.56C93.2275 111.254 93.2617 110.926 93.2617 110.575ZM85.7422 110.575V110.432C85.7422 109.967 85.7786 109.532 85.8516 109.126C85.9245 108.72 86.0339 108.356 86.1797 108.032C86.3255 107.704 86.5055 107.424 86.7197 107.191C86.9385 106.959 87.1891 106.781 87.4717 106.658C87.7588 106.531 88.0801 106.467 88.4355 106.467C88.7865 106.467 89.0918 106.519 89.3516 106.624C89.6159 106.729 89.8392 106.879 90.0215 107.075C90.2038 107.271 90.3496 107.508 90.459 107.786C90.5684 108.064 90.6458 108.379 90.6914 108.729V111.881C90.6504 112.227 90.5752 112.539 90.4658 112.817C90.3564 113.095 90.2106 113.335 90.0283 113.535C89.846 113.731 89.6204 113.882 89.3516 113.986C89.0872 114.091 88.7773 114.144 88.4219 114.144C87.9844 114.144 87.5993 114.057 87.2666 113.884C86.9339 113.706 86.6536 113.458 86.4258 113.139C86.2025 112.82 86.0316 112.444 85.9131 112.011C85.7992 111.573 85.7422 111.095 85.7422 110.575ZM87.0137 110.432V110.575C87.0137 110.926 87.0433 111.254 87.1025 111.56C87.1663 111.865 87.2643 112.134 87.3965 112.366C87.5332 112.599 87.7109 112.781 87.9297 112.913C88.1484 113.041 88.4173 113.104 88.7363 113.104C89.0098 113.104 89.2354 113.07 89.4131 113.002C89.5908 112.934 89.7321 112.845 89.8369 112.735C89.9417 112.626 90.0215 112.512 90.0762 112.394V108.23C90.0306 108.107 89.9554 107.991 89.8506 107.882C89.7503 107.768 89.6113 107.677 89.4336 107.608C89.2559 107.54 89.028 107.506 88.75 107.506C88.431 107.506 88.1598 107.583 87.9365 107.738C87.7132 107.893 87.5332 108.105 87.3965 108.374C87.2643 108.643 87.1663 108.955 87.1025 109.311C87.0433 109.661 87.0137 110.035 87.0137 110.432ZM89.4473 116.844V103.5H90.7188V116.844H89.4473ZM100.542 112.735V108.928C100.542 108.636 100.483 108.383 100.364 108.169C100.25 107.95 100.077 107.782 99.8447 107.663C99.6123 107.545 99.3252 107.485 98.9834 107.485C98.6644 107.485 98.3841 107.54 98.1426 107.649C97.9056 107.759 97.7188 107.902 97.582 108.08C97.4499 108.258 97.3838 108.449 97.3838 108.654H96.1191C96.1191 108.39 96.1875 108.128 96.3242 107.868C96.4609 107.608 96.6569 107.374 96.9121 107.164C97.1719 106.95 97.4818 106.781 97.8418 106.658C98.2064 106.531 98.612 106.467 99.0586 106.467C99.5964 106.467 100.07 106.558 100.48 106.74C100.895 106.923 101.219 107.198 101.451 107.567C101.688 107.932 101.807 108.39 101.807 108.941V112.387C101.807 112.633 101.827 112.895 101.868 113.173C101.914 113.451 101.98 113.69 102.066 113.891V114H100.747C100.683 113.854 100.633 113.66 100.597 113.419C100.56 113.173 100.542 112.945 100.542 112.735ZM100.761 109.516L100.774 110.404H99.4961C99.1361 110.404 98.8148 110.434 98.5322 110.493C98.2497 110.548 98.0127 110.632 97.8213 110.746C97.6299 110.86 97.484 111.004 97.3838 111.177C97.2835 111.345 97.2334 111.544 97.2334 111.771C97.2334 112.004 97.2858 112.216 97.3906 112.407C97.4954 112.599 97.6527 112.751 97.8623 112.865C98.0765 112.975 98.3385 113.029 98.6484 113.029C99.0358 113.029 99.3776 112.947 99.6738 112.783C99.9701 112.619 100.205 112.419 100.378 112.182C100.556 111.945 100.651 111.715 100.665 111.491L101.205 112.1C101.173 112.291 101.087 112.503 100.945 112.735C100.804 112.968 100.615 113.191 100.378 113.405C100.146 113.615 99.8675 113.79 99.5439 113.932C99.2249 114.068 98.8649 114.137 98.4639 114.137C97.9626 114.137 97.5228 114.039 97.1445 113.843C96.7708 113.647 96.4792 113.385 96.2695 113.057C96.0645 112.724 95.9619 112.353 95.9619 111.942C95.9619 111.546 96.0394 111.197 96.1943 110.896C96.3493 110.591 96.5726 110.338 96.8643 110.138C97.1559 109.933 97.5068 109.778 97.917 109.673C98.3271 109.568 98.7852 109.516 99.291 109.516H100.761ZM105.163 111.997L108.574 106.604H109.846V114H108.574V108.606L105.163 114H103.905V106.604H105.163V111.997ZM107.884 103.924H108.909C108.909 104.279 108.827 104.596 108.663 104.874C108.499 105.147 108.264 105.362 107.959 105.517C107.654 105.672 107.291 105.749 106.872 105.749C106.239 105.749 105.737 105.58 105.368 105.243C105.004 104.901 104.821 104.462 104.821 103.924H105.847C105.847 104.193 105.924 104.43 106.079 104.635C106.234 104.84 106.498 104.942 106.872 104.942C107.237 104.942 107.496 104.84 107.651 104.635C107.806 104.43 107.884 104.193 107.884 103.924ZM116.818 106.604V107.649H113.243V106.604H116.818ZM117.933 106.604V114H116.668V106.604H117.933ZM112.936 106.604H114.207L114.016 110.172C113.984 110.723 113.931 111.211 113.858 111.635C113.79 112.054 113.694 112.414 113.571 112.715C113.453 113.016 113.302 113.262 113.12 113.453C112.942 113.64 112.728 113.779 112.478 113.87C112.227 113.957 111.938 114 111.609 114H111.213V112.886L111.486 112.865C111.682 112.852 111.849 112.806 111.985 112.729C112.127 112.651 112.245 112.537 112.341 112.387C112.437 112.232 112.514 112.034 112.573 111.792C112.637 111.55 112.685 111.263 112.717 110.931C112.753 110.598 112.781 110.211 112.799 109.769L112.936 106.604ZM127.804 112.735V108.928C127.804 108.636 127.744 108.383 127.626 108.169C127.512 107.95 127.339 107.782 127.106 107.663C126.874 107.545 126.587 107.485 126.245 107.485C125.926 107.485 125.646 107.54 125.404 107.649C125.167 107.759 124.98 107.902 124.844 108.08C124.712 108.258 124.646 108.449 124.646 108.654H123.381C123.381 108.39 123.449 108.128 123.586 107.868C123.723 107.608 123.919 107.374 124.174 107.164C124.434 106.95 124.743 106.781 125.104 106.658C125.468 106.531 125.874 106.467 126.32 106.467C126.858 106.467 127.332 106.558 127.742 106.74C128.157 106.923 128.48 107.198 128.713 107.567C128.95 107.932 129.068 108.39 129.068 108.941V112.387C129.068 112.633 129.089 112.895 129.13 113.173C129.175 113.451 129.242 113.69 129.328 113.891V114H128.009C127.945 113.854 127.895 113.66 127.858 113.419C127.822 113.173 127.804 112.945 127.804 112.735ZM128.022 109.516L128.036 110.404H126.758C126.398 110.404 126.076 110.434 125.794 110.493C125.511 110.548 125.274 110.632 125.083 110.746C124.892 110.86 124.746 111.004 124.646 111.177C124.545 111.345 124.495 111.544 124.495 111.771C124.495 112.004 124.548 112.216 124.652 112.407C124.757 112.599 124.914 112.751 125.124 112.865C125.338 112.975 125.6 113.029 125.91 113.029C126.298 113.029 126.639 112.947 126.936 112.783C127.232 112.619 127.466 112.419 127.64 112.182C127.817 111.945 127.913 111.715 127.927 111.491L128.467 112.1C128.435 112.291 128.348 112.503 128.207 112.735C128.066 112.968 127.877 113.191 127.64 113.405C127.407 113.615 127.129 113.79 126.806 113.932C126.487 114.068 126.127 114.137 125.726 114.137C125.224 114.137 124.785 114.039 124.406 113.843C124.033 113.647 123.741 113.385 123.531 113.057C123.326 112.724 123.224 112.353 123.224 111.942C123.224 111.546 123.301 111.197 123.456 110.896C123.611 110.591 123.834 110.338 124.126 110.138C124.418 109.933 124.769 109.778 125.179 109.673C125.589 109.568 126.047 109.516 126.553 109.516H128.022ZM135.802 103.384H136.841C136.841 103.83 136.772 104.186 136.636 104.45C136.499 104.71 136.312 104.91 136.075 105.052C135.843 105.193 135.578 105.3 135.282 105.373C134.991 105.446 134.688 105.517 134.373 105.585C133.981 105.667 133.617 105.797 133.279 105.975C132.947 106.148 132.66 106.394 132.418 106.713C132.181 107.032 132.006 107.447 131.892 107.957C131.782 108.467 131.753 109.099 131.803 109.851V110.479H130.764V109.851C130.764 109.007 130.843 108.271 131.003 107.643C131.167 107.014 131.397 106.483 131.693 106.05C131.99 105.617 132.34 105.273 132.746 105.018C133.156 104.762 133.607 104.587 134.1 104.491C134.455 104.423 134.76 104.35 135.016 104.272C135.271 104.19 135.465 104.081 135.597 103.944C135.733 103.808 135.802 103.621 135.802 103.384ZM134.305 107.027C134.788 107.027 135.218 107.112 135.597 107.28C135.975 107.449 136.296 107.684 136.561 107.984C136.825 108.285 137.025 108.641 137.162 109.051C137.303 109.456 137.374 109.898 137.374 110.377V110.527C137.374 111.042 137.299 111.521 137.148 111.963C137.003 112.4 136.786 112.783 136.499 113.111C136.216 113.435 135.87 113.688 135.46 113.87C135.054 114.052 134.592 114.144 134.072 114.144C133.553 114.144 133.088 114.052 132.678 113.87C132.272 113.688 131.926 113.435 131.639 113.111C131.352 112.783 131.133 112.4 130.982 111.963C130.837 111.521 130.764 111.042 130.764 110.527V110.377C130.764 110.263 130.784 110.151 130.825 110.042C130.866 109.933 130.916 109.821 130.976 109.707C131.039 109.593 131.096 109.472 131.146 109.345C131.315 108.935 131.545 108.554 131.837 108.203C132.133 107.852 132.486 107.57 132.896 107.355C133.311 107.137 133.781 107.027 134.305 107.027ZM134.059 108.06C133.594 108.06 133.211 108.167 132.91 108.381C132.614 108.595 132.393 108.88 132.247 109.235C132.101 109.586 132.028 109.967 132.028 110.377V110.527C132.028 110.874 132.069 111.202 132.151 111.512C132.233 111.822 132.356 112.097 132.521 112.339C132.689 112.576 132.901 112.763 133.156 112.899C133.416 113.036 133.721 113.104 134.072 113.104C134.423 113.104 134.726 113.036 134.981 112.899C135.237 112.763 135.446 112.576 135.61 112.339C135.774 112.097 135.897 111.822 135.979 111.512C136.062 111.202 136.103 110.874 136.103 110.527V110.377C136.103 110.067 136.062 109.773 135.979 109.495C135.897 109.217 135.772 108.971 135.604 108.757C135.439 108.543 135.228 108.374 134.968 108.251C134.713 108.123 134.41 108.06 134.059 108.06ZM138.475 110.384V110.227C138.475 109.693 138.552 109.199 138.707 108.743C138.862 108.283 139.085 107.884 139.377 107.547C139.669 107.205 140.022 106.941 140.437 106.754C140.851 106.562 141.316 106.467 141.831 106.467C142.351 106.467 142.818 106.562 143.232 106.754C143.652 106.941 144.007 107.205 144.299 107.547C144.595 107.884 144.821 108.283 144.976 108.743C145.131 109.199 145.208 109.693 145.208 110.227V110.384C145.208 110.917 145.131 111.411 144.976 111.867C144.821 112.323 144.595 112.722 144.299 113.063C144.007 113.401 143.654 113.665 143.239 113.856C142.829 114.043 142.364 114.137 141.845 114.137C141.325 114.137 140.858 114.043 140.443 113.856C140.029 113.665 139.673 113.401 139.377 113.063C139.085 112.722 138.862 112.323 138.707 111.867C138.552 111.411 138.475 110.917 138.475 110.384ZM139.739 110.227V110.384C139.739 110.753 139.783 111.102 139.869 111.43C139.956 111.753 140.086 112.04 140.259 112.291C140.437 112.542 140.658 112.74 140.922 112.886C141.186 113.027 141.494 113.098 141.845 113.098C142.191 113.098 142.494 113.027 142.754 112.886C143.018 112.74 143.237 112.542 143.41 112.291C143.583 112.04 143.713 111.753 143.8 111.43C143.891 111.102 143.937 110.753 143.937 110.384V110.227C143.937 109.862 143.891 109.518 143.8 109.194C143.713 108.866 143.581 108.577 143.403 108.326C143.23 108.071 143.011 107.87 142.747 107.725C142.487 107.579 142.182 107.506 141.831 107.506C141.485 107.506 141.179 107.579 140.915 107.725C140.655 107.87 140.437 108.071 140.259 108.326C140.086 108.577 139.956 108.866 139.869 109.194C139.783 109.518 139.739 109.862 139.739 110.227ZM155.195 106.604V107.649H151.456V106.604H155.195ZM151.641 106.604V114H150.376V106.604H151.641ZM156.316 106.604V114H155.045V106.604H156.316ZM161.416 114.137C160.901 114.137 160.434 114.05 160.015 113.877C159.6 113.699 159.242 113.451 158.941 113.132C158.645 112.813 158.417 112.435 158.258 111.997C158.098 111.56 158.019 111.081 158.019 110.562V110.274C158.019 109.673 158.107 109.137 158.285 108.668C158.463 108.194 158.704 107.793 159.01 107.465C159.315 107.137 159.661 106.888 160.049 106.72C160.436 106.551 160.837 106.467 161.252 106.467C161.781 106.467 162.236 106.558 162.619 106.74C163.007 106.923 163.323 107.178 163.569 107.506C163.815 107.829 163.998 108.212 164.116 108.654C164.235 109.092 164.294 109.57 164.294 110.09V110.657H158.771V109.625H163.029V109.529C163.011 109.201 162.943 108.882 162.824 108.572C162.71 108.262 162.528 108.007 162.277 107.807C162.027 107.606 161.685 107.506 161.252 107.506C160.965 107.506 160.701 107.567 160.459 107.69C160.217 107.809 160.01 107.987 159.837 108.224C159.664 108.461 159.529 108.75 159.434 109.092C159.338 109.434 159.29 109.828 159.29 110.274V110.562C159.29 110.912 159.338 111.243 159.434 111.553C159.534 111.858 159.677 112.127 159.864 112.359C160.056 112.592 160.286 112.774 160.555 112.906C160.828 113.038 161.138 113.104 161.484 113.104C161.931 113.104 162.309 113.013 162.619 112.831C162.929 112.649 163.2 112.405 163.433 112.1L164.198 112.708C164.039 112.95 163.836 113.18 163.59 113.398C163.344 113.617 163.041 113.795 162.681 113.932C162.325 114.068 161.904 114.137 161.416 114.137ZM167.035 108.025V116.844H165.764V106.604H166.926L167.035 108.025ZM172.019 110.24V110.384C172.019 110.922 171.955 111.421 171.827 111.881C171.7 112.337 171.513 112.733 171.267 113.07C171.025 113.408 170.727 113.67 170.371 113.856C170.016 114.043 169.608 114.137 169.147 114.137C168.678 114.137 168.263 114.059 167.903 113.904C167.543 113.749 167.238 113.524 166.987 113.228C166.737 112.931 166.536 112.576 166.386 112.161C166.24 111.746 166.14 111.279 166.085 110.76V109.994C166.14 109.447 166.242 108.957 166.393 108.524C166.543 108.091 166.741 107.722 166.987 107.417C167.238 107.107 167.541 106.872 167.896 106.713C168.252 106.549 168.662 106.467 169.127 106.467C169.592 106.467 170.004 106.558 170.364 106.74C170.724 106.918 171.027 107.173 171.273 107.506C171.52 107.839 171.704 108.237 171.827 108.702C171.955 109.162 172.019 109.675 172.019 110.24ZM170.747 110.384V110.24C170.747 109.871 170.708 109.525 170.631 109.201C170.553 108.873 170.433 108.586 170.269 108.34C170.109 108.089 169.904 107.893 169.653 107.752C169.403 107.606 169.104 107.533 168.758 107.533C168.439 107.533 168.161 107.588 167.924 107.697C167.691 107.807 167.493 107.955 167.329 108.142C167.165 108.324 167.031 108.534 166.926 108.771C166.826 109.003 166.75 109.244 166.7 109.495V111.266C166.791 111.585 166.919 111.885 167.083 112.168C167.247 112.446 167.466 112.672 167.739 112.845C168.013 113.013 168.357 113.098 168.771 113.098C169.113 113.098 169.407 113.027 169.653 112.886C169.904 112.74 170.109 112.542 170.269 112.291C170.433 112.04 170.553 111.753 170.631 111.43C170.708 111.102 170.747 110.753 170.747 110.384ZM176.701 114.137C176.186 114.137 175.719 114.05 175.3 113.877C174.885 113.699 174.527 113.451 174.227 113.132C173.93 112.813 173.702 112.435 173.543 111.997C173.383 111.56 173.304 111.081 173.304 110.562V110.274C173.304 109.673 173.393 109.137 173.57 108.668C173.748 108.194 173.99 107.793 174.295 107.465C174.6 107.137 174.947 106.888 175.334 106.72C175.721 106.551 176.122 106.467 176.537 106.467C177.066 106.467 177.521 106.558 177.904 106.74C178.292 106.923 178.608 107.178 178.854 107.506C179.101 107.829 179.283 108.212 179.401 108.654C179.52 109.092 179.579 109.57 179.579 110.09V110.657H174.056V109.625H178.314V109.529C178.296 109.201 178.228 108.882 178.109 108.572C177.995 108.262 177.813 108.007 177.562 107.807C177.312 107.606 176.97 107.506 176.537 107.506C176.25 107.506 175.986 107.567 175.744 107.69C175.503 107.809 175.295 107.987 175.122 108.224C174.949 108.461 174.814 108.75 174.719 109.092C174.623 109.434 174.575 109.828 174.575 110.274V110.562C174.575 110.912 174.623 111.243 174.719 111.553C174.819 111.858 174.963 112.127 175.149 112.359C175.341 112.592 175.571 112.774 175.84 112.906C176.113 113.038 176.423 113.104 176.77 113.104C177.216 113.104 177.594 113.013 177.904 112.831C178.214 112.649 178.485 112.405 178.718 112.1L179.483 112.708C179.324 112.95 179.121 113.18 178.875 113.398C178.629 113.617 178.326 113.795 177.966 113.932C177.61 114.068 177.189 114.137 176.701 114.137ZM183.988 106.604V114H182.717V106.604H183.988ZM186.47 106.604V107.629H180.283V106.604H186.47ZM189.211 110.473H190.578L188.438 114H187.071L189.211 110.473ZM190.271 106.604H193.36V114H192.096V107.629H190.271C189.91 107.629 189.617 107.69 189.389 107.813C189.161 107.932 188.994 108.087 188.89 108.278C188.785 108.47 188.732 108.668 188.732 108.873C188.732 109.074 188.78 109.267 188.876 109.454C188.972 109.636 189.122 109.787 189.327 109.905C189.532 110.024 189.797 110.083 190.12 110.083H192.438V111.122H190.12C189.696 111.122 189.32 111.065 188.992 110.951C188.664 110.837 188.386 110.68 188.158 110.479C187.93 110.274 187.757 110.035 187.639 109.762C187.52 109.484 187.461 109.183 187.461 108.859C187.461 108.536 187.522 108.237 187.646 107.964C187.773 107.69 187.955 107.451 188.192 107.246C188.434 107.041 188.728 106.884 189.074 106.774C189.425 106.66 189.824 106.604 190.271 106.604ZM200.176 106.604V107.649H196.758V114H195.493V106.604H200.176ZM206.294 109.81V110.835H202.384V109.81H206.294ZM202.65 106.604V114H201.386V106.604H202.65ZM207.319 106.604V114H206.048V106.604H207.319ZM210.73 106.604V114H209.459V106.604H210.73ZM209.363 104.642C209.363 104.437 209.425 104.263 209.548 104.122C209.675 103.981 209.862 103.91 210.108 103.91C210.35 103.91 210.535 103.981 210.662 104.122C210.794 104.263 210.86 104.437 210.86 104.642C210.86 104.838 210.794 105.006 210.662 105.147C210.535 105.284 210.35 105.353 210.108 105.353C209.862 105.353 209.675 105.284 209.548 105.147C209.425 105.006 209.363 104.838 209.363 104.642ZM215.775 106.604V114H214.504V106.604H215.775ZM218.257 106.604V107.629H212.07V106.604H218.257ZM220.54 109.146H222.762C223.359 109.146 223.862 109.251 224.272 109.461C224.683 109.666 224.993 109.951 225.202 110.315C225.416 110.675 225.523 111.086 225.523 111.546C225.523 111.888 225.464 112.209 225.346 112.51C225.227 112.806 225.049 113.066 224.812 113.289C224.58 113.512 224.291 113.688 223.944 113.815C223.603 113.938 223.208 114 222.762 114H219.617V106.604H220.882V112.961H222.762C223.126 112.961 223.418 112.895 223.637 112.763C223.855 112.631 224.013 112.46 224.108 112.25C224.204 112.04 224.252 111.822 224.252 111.594C224.252 111.37 224.204 111.152 224.108 110.938C224.013 110.723 223.855 110.546 223.637 110.404C223.418 110.258 223.126 110.186 222.762 110.186H220.54V109.146ZM231.942 111.997L235.354 106.604H236.625V114H235.354V108.606L231.942 114H230.685V106.604H231.942V111.997ZM234.663 103.924H235.688C235.688 104.279 235.606 104.596 235.442 104.874C235.278 105.147 235.044 105.362 234.738 105.517C234.433 105.672 234.071 105.749 233.651 105.749C233.018 105.749 232.517 105.58 232.147 105.243C231.783 104.901 231.601 104.462 231.601 103.924H232.626C232.626 104.193 232.703 104.43 232.858 104.635C233.013 104.84 233.278 104.942 233.651 104.942C234.016 104.942 234.276 104.84 234.431 104.635C234.586 104.43 234.663 104.193 234.663 103.924ZM238.32 110.384V110.227C238.32 109.693 238.398 109.199 238.553 108.743C238.708 108.283 238.931 107.884 239.223 107.547C239.514 107.205 239.868 106.941 240.282 106.754C240.697 106.562 241.162 106.467 241.677 106.467C242.196 106.467 242.663 106.562 243.078 106.754C243.497 106.941 243.853 107.205 244.145 107.547C244.441 107.884 244.666 108.283 244.821 108.743C244.976 109.199 245.054 109.693 245.054 110.227V110.384C245.054 110.917 244.976 111.411 244.821 111.867C244.666 112.323 244.441 112.722 244.145 113.063C243.853 113.401 243.5 113.665 243.085 113.856C242.675 114.043 242.21 114.137 241.69 114.137C241.171 114.137 240.704 114.043 240.289 113.856C239.874 113.665 239.519 113.401 239.223 113.063C238.931 112.722 238.708 112.323 238.553 111.867C238.398 111.411 238.32 110.917 238.32 110.384ZM239.585 110.227V110.384C239.585 110.753 239.628 111.102 239.715 111.43C239.801 111.753 239.931 112.04 240.104 112.291C240.282 112.542 240.503 112.74 240.768 112.886C241.032 113.027 241.34 113.098 241.69 113.098C242.037 113.098 242.34 113.027 242.6 112.886C242.864 112.74 243.083 112.542 243.256 112.291C243.429 112.04 243.559 111.753 243.646 111.43C243.737 111.102 243.782 110.753 243.782 110.384V110.227C243.782 109.862 243.737 109.518 243.646 109.194C243.559 108.866 243.427 108.577 243.249 108.326C243.076 108.071 242.857 107.87 242.593 107.725C242.333 107.579 242.028 107.506 241.677 107.506C241.33 107.506 241.025 107.579 240.761 107.725C240.501 107.87 240.282 108.071 240.104 108.326C239.931 108.577 239.801 108.866 239.715 109.194C239.628 109.518 239.585 109.862 239.585 110.227ZM251.418 106.604V107.649H248V114H246.735V106.604H251.418ZM252.047 110.384V110.227C252.047 109.693 252.124 109.199 252.279 108.743C252.434 108.283 252.658 107.884 252.949 107.547C253.241 107.205 253.594 106.941 254.009 106.754C254.424 106.562 254.888 106.467 255.403 106.467C255.923 106.467 256.39 106.562 256.805 106.754C257.224 106.941 257.579 107.205 257.871 107.547C258.167 107.884 258.393 108.283 258.548 108.743C258.703 109.199 258.78 109.693 258.78 110.227V110.384C258.78 110.917 258.703 111.411 258.548 111.867C258.393 112.323 258.167 112.722 257.871 113.063C257.579 113.401 257.226 113.665 256.812 113.856C256.401 114.043 255.937 114.137 255.417 114.137C254.897 114.137 254.43 114.043 254.016 113.856C253.601 113.665 253.245 113.401 252.949 113.063C252.658 112.722 252.434 112.323 252.279 111.867C252.124 111.411 252.047 110.917 252.047 110.384ZM253.312 110.227V110.384C253.312 110.753 253.355 111.102 253.441 111.43C253.528 111.753 253.658 112.04 253.831 112.291C254.009 112.542 254.23 112.74 254.494 112.886C254.758 113.027 255.066 113.098 255.417 113.098C255.763 113.098 256.066 113.027 256.326 112.886C256.59 112.74 256.809 112.542 256.982 112.291C257.156 112.04 257.285 111.753 257.372 111.43C257.463 111.102 257.509 110.753 257.509 110.384V110.227C257.509 109.862 257.463 109.518 257.372 109.194C257.285 108.866 257.153 108.577 256.976 108.326C256.802 108.071 256.584 107.87 256.319 107.725C256.06 107.579 255.754 107.506 255.403 107.506C255.057 107.506 254.752 107.579 254.487 107.725C254.228 107.87 254.009 108.071 253.831 108.326C253.658 108.577 253.528 108.866 253.441 109.194C253.355 109.518 253.312 109.862 253.312 110.227ZM266.799 113.098C267.1 113.098 267.378 113.036 267.633 112.913C267.888 112.79 268.098 112.621 268.262 112.407C268.426 112.188 268.519 111.94 268.542 111.662H269.745C269.722 112.1 269.574 112.507 269.301 112.886C269.032 113.259 268.679 113.562 268.241 113.795C267.804 114.023 267.323 114.137 266.799 114.137C266.243 114.137 265.757 114.039 265.343 113.843C264.933 113.647 264.591 113.378 264.317 113.036C264.049 112.694 263.846 112.302 263.709 111.86C263.577 111.414 263.511 110.942 263.511 110.445V110.158C263.511 109.661 263.577 109.192 263.709 108.75C263.846 108.303 264.049 107.909 264.317 107.567C264.591 107.226 264.933 106.957 265.343 106.761C265.757 106.565 266.243 106.467 266.799 106.467C267.378 106.467 267.883 106.585 268.316 106.822C268.749 107.055 269.089 107.374 269.335 107.779C269.586 108.18 269.722 108.636 269.745 109.146H268.542C268.519 108.841 268.433 108.565 268.282 108.319C268.136 108.073 267.936 107.877 267.681 107.731C267.43 107.581 267.136 107.506 266.799 107.506C266.411 107.506 266.086 107.583 265.821 107.738C265.562 107.889 265.354 108.094 265.199 108.354C265.049 108.609 264.939 108.894 264.871 109.208C264.807 109.518 264.775 109.835 264.775 110.158V110.445C264.775 110.769 264.807 111.088 264.871 111.402C264.935 111.717 265.042 112.002 265.192 112.257C265.347 112.512 265.555 112.717 265.814 112.872C266.079 113.022 266.407 113.098 266.799 113.098ZM275.378 109.741V110.773H271.447V109.741H275.378ZM272.548 106.604V114H271.283V106.604H272.548ZM274.298 110.384V110.227C274.298 109.693 274.375 109.199 274.53 108.743C274.685 108.283 274.909 107.884 275.2 107.547C275.496 107.205 275.85 106.941 276.26 106.754C276.674 106.562 277.139 106.467 277.654 106.467C278.178 106.467 278.648 106.562 279.062 106.754C279.477 106.941 279.83 107.205 280.122 107.547C280.418 107.884 280.644 108.283 280.799 108.743C280.954 109.199 281.031 109.693 281.031 110.227V110.384C281.031 110.917 280.954 111.411 280.799 111.867C280.644 112.323 280.421 112.722 280.129 113.063C279.837 113.401 279.484 113.665 279.069 113.856C278.655 114.043 278.188 114.137 277.668 114.137C277.148 114.137 276.681 114.043 276.267 113.856C275.852 113.665 275.496 113.401 275.2 113.063C274.909 112.722 274.685 112.323 274.53 111.867C274.375 111.411 274.298 110.917 274.298 110.384ZM275.569 110.227V110.384C275.569 110.753 275.613 111.102 275.699 111.43C275.786 111.753 275.916 112.04 276.089 112.291C276.267 112.542 276.485 112.74 276.745 112.886C277.009 113.027 277.317 113.098 277.668 113.098C278.019 113.098 278.324 113.027 278.584 112.886C278.848 112.74 279.067 112.542 279.24 112.291C279.413 112.04 279.543 111.753 279.63 111.43C279.721 111.102 279.767 110.753 279.767 110.384V110.227C279.767 109.862 279.721 109.518 279.63 109.194C279.543 108.866 279.411 108.577 279.233 108.326C279.06 108.071 278.841 107.87 278.577 107.725C278.313 107.579 278.005 107.506 277.654 107.506C277.308 107.506 277.005 107.579 276.745 107.725C276.485 107.87 276.267 108.071 276.089 108.326C275.916 108.577 275.786 108.866 275.699 109.194C275.613 109.518 275.569 109.862 275.569 110.227ZM283.807 106.604H285.071L284.962 109.372C284.935 110.074 284.855 110.68 284.723 111.19C284.59 111.701 284.422 112.136 284.217 112.496C284.012 112.852 283.782 113.15 283.526 113.392C283.276 113.633 283.016 113.836 282.747 114H282.118L282.152 112.968L282.412 112.961C282.562 112.783 282.708 112.601 282.85 112.414C282.991 112.223 283.121 111.997 283.239 111.737C283.358 111.473 283.456 111.152 283.533 110.773C283.615 110.391 283.668 109.924 283.69 109.372L283.807 106.604ZM284.121 106.604H288.571V114H287.307V107.772H284.121V106.604ZM281.831 112.961H289.521V116.181H288.257V114H283.096V116.181H281.824L281.831 112.961ZM292.29 111.997L295.701 106.604H296.973V114H295.701V108.606L292.29 114H291.032V106.604H292.29V111.997Z" fill="#BDBDBD"/>
<path d="M136.167 179.833H137.333L144.521 172.646L143.354 171.479L136.167 178.667V179.833ZM148.083 171.438L144.542 167.938L145.708 166.771C146.028 166.451 146.42 166.292 146.886 166.292C147.351 166.292 147.744 166.451 148.062 166.771L149.229 167.938C149.549 168.257 149.715 168.643 149.729 169.094C149.743 169.546 149.59 169.931 149.271 170.25L148.083 171.438ZM146.875 172.667L138.042 181.5H134.5V177.958L143.333 169.125L146.875 172.667ZM143.938 172.063L143.354 171.479L144.521 172.646L143.938 172.063Z" fill="#BDBDBD"/>
<path d="M181.833 181.5C181.375 181.5 180.982 181.337 180.656 181.01C180.329 180.683 180.166 180.291 180.167 179.833V169H179.333V167.333H183.5V166.5H188.5V167.333H192.667V169H191.833V179.833C191.833 180.292 191.67 180.684 191.343 181.011C191.017 181.338 190.624 181.501 190.167 181.5H181.833ZM190.167 169H181.833V179.833H190.167V169ZM183.5 178.167H185.167V170.667H183.5V178.167ZM186.833 178.167H188.5V170.667H186.833V178.167Z" fill="#BDBDBD"/>
<rect x="0.5" y="0.5" width="327" height="199" rx="4.5" stroke="#E2E2E2"/>
</svg>
