<svg width="32" height="32" viewBox="0 0 32 32" fill="none" xmlns="http://www.w3.org/2000/svg">
<path d="M16 6C10.4862 6 6 10.4862 6 16C6 21.5138 10.4862 26 16 26C21.5138 26 26 21.5138 26 16C26 10.4862 21.5138 6 16 6ZM16 7.53846C20.6823 7.53846 24.4615 11.3177 24.4615 16C24.4615 20.6823 20.6823 24.4615 16 24.4615C11.3177 24.4615 7.53846 20.6823 7.53846 16C7.53846 11.3177 11.3177 7.53846 16 7.53846ZM15.2308 11.3846V15.2308H11.3846V16.7692H15.2308V20.6154H16.7692V16.7692H20.6154V15.2308H16.7692V11.3846H15.2308Z" fill="#0D7211"/>
</svg>
