<svg width="32" height="32" viewBox="0 0 32 32" fill="none" xmlns="http://www.w3.org/2000/svg">
<path fill-rule="evenodd" clip-rule="evenodd" d="M13.9998 5.00003C14.227 5.00003 13.8391 4.77145 13.9998 5.00003C13.7727 5.00003 13.1606 4.77145 12.9998 5.00003L5.99984 15C5.83932 15.2289 5.99984 15.6766 5.99984 16C5.99984 16.3235 5.83932 16.7712 5.99984 17L12.9998 27C13.0783 27.1199 12.8947 26.9333 12.9998 27C13.105 27.0667 13.8848 26.9971 13.9998 27C14.1149 27.0029 13.8931 27.0614 13.9998 27C14.1066 26.9386 13.9184 27.1159 13.9998 27C14.0812 26.8841 14.9567 26.152 14.9998 26C15.043 25.848 15.0019 26.1639 14.9998 26C14.9978 25.8361 15.0467 25.1498 14.9998 25C14.953 24.8503 14.0841 25.1118 13.9998 25L8.99984 17H24.9998C25.2272 17 25.8391 17.2289 25.9998 17C26.1606 16.7711 25.9998 16.3237 25.9998 16C25.9998 15.6763 26.1606 15.2289 25.9998 15C25.8391 14.7711 25.2272 15 24.9998 15H8.99984L13.9998 7.00003C14.1604 6.77117 14.9998 6.32348 14.9998 6.00003C14.9998 5.67657 14.1604 5.22889 13.9998 5.00003Z" fill="#0D7211"/>
</svg>
