<svg width="32" height="32" viewBox="0 0 32 32" fill="none" xmlns="http://www.w3.org/2000/svg">
<path fill-rule="evenodd" clip-rule="evenodd" d="M18.0002 5.00003C17.773 5.00003 18.1609 4.77145 18.0002 5.00003C18.2273 5.00003 18.8394 4.77145 19.0002 5.00003L26.0002 15C26.1607 15.2289 26.0002 15.6766 26.0002 16C26.0002 16.3235 26.1607 16.7712 26.0002 17L19.0002 27C18.9217 27.1199 19.1053 26.9333 19.0002 27C18.895 27.0667 18.1152 26.9971 18.0002 27C17.8851 27.0029 18.1069 27.0614 18.0002 27C17.8934 26.9386 18.0816 27.1159 18.0002 27C17.9188 26.8841 17.0433 26.152 17.0002 26C16.957 25.848 16.9981 26.1639 17.0002 26C17.0022 25.8361 16.9533 25.1498 17.0002 25C17.047 24.8503 17.9159 25.1118 18.0002 25L23.0002 17H7.00016C6.77282 17 6.16091 17.2289 6.00016 17C5.8394 16.7711 6.00016 16.3237 6.00016 16C6.00016 15.6763 5.8394 15.2289 6.00016 15C6.16091 14.7711 6.77282 15 7.00016 15H23.0002L18.0002 7.00003C17.8396 6.77117 17.0002 6.32348 17.0002 6.00003C17.0002 5.67657 17.8396 5.22889 18.0002 5.00003Z" fill="#0D7211"/>
</svg>
