<svg width="20" height="21" viewBox="0 0 20 21" fill="none" xmlns="http://www.w3.org/2000/svg">
<path d="M13.3611 3.5L16.0905 8.2506H19V9.95883H18.0081L17.3646 17.7168C17.3469 17.9302 17.2501 18.1292 17.0933 18.2742C16.9365 18.4193 16.7311 18.4999 16.518 18.5H4.482C4.26886 18.4999 4.06354 18.4193 3.90674 18.2742C3.74993 18.1292 3.65309 17.9302 3.6354 17.7168L2.9911 9.95883H2V8.2506H4.9087L7.6389 3.5L9.1111 4.35412L6.8722 8.2506H14.127L11.8889 4.35412L13.3611 3.5ZM16.3021 9.95883H4.69705L5.264 16.7918H15.7352L16.3021 9.95883ZM11.35 11.6671V15.0835H9.65V11.6671H11.35ZM7.95 11.6671V15.0835H6.25V11.6671H7.95ZM14.75 11.6671V15.0835H13.05V11.6671H14.75Z" fill="white"/>
</svg>
