<svg width="22" height="20" viewBox="0 0 22 20" fill="none" xmlns="http://www.w3.org/2000/svg">
<path fill-rule="evenodd" clip-rule="evenodd" d="M9.18493 0.711924C9.01135 0.512439 8.77606 0.400391 8.53073 0.400391C8.28541 0.400391 8.05011 0.512439 7.87654 0.711924L0.470541 9.23387C0.297178 9.4336 0.199804 9.70435 0.199804 9.98664C0.199804 10.2689 0.297178 10.5397 0.470541 10.7394L7.87654 19.2614C7.96129 19.366 8.06349 19.45 8.17705 19.5082C8.29061 19.5664 8.41319 19.5977 8.53749 19.6002C8.66179 19.6027 8.78526 19.5764 8.90054 19.5229C9.01581 19.4693 9.12052 19.3895 9.20843 19.2884C9.29634 19.1872 9.36564 19.0667 9.4122 18.9341C9.45876 18.8015 9.48162 18.6594 9.47943 18.5164C9.47724 18.3733 9.45003 18.2323 9.39943 18.1016C9.34883 17.9709 9.27588 17.8533 9.18493 17.7558L3.35888 11.0519H20.8741C21.1196 11.0519 21.355 10.9396 21.5287 10.7399C21.7023 10.5401 21.7998 10.2692 21.7998 9.98664C21.7998 9.70412 21.7023 9.43317 21.5287 9.2334C21.355 9.03363 21.1196 8.92139 20.8741 8.92139H3.35888L9.18493 2.21747C9.35829 2.01773 9.45567 1.74699 9.45567 1.4647C9.45567 1.18241 9.35829 0.911658 9.18493 0.711924Z" fill="#0D7211"/>
</svg>
