<svg width="22" height="20" viewBox="0 0 22 20" fill="none" xmlns="http://www.w3.org/2000/svg">
<path fill-rule="evenodd" clip-rule="evenodd" d="M12.8151 0.711924C12.9887 0.512439 13.2239 0.400391 13.4693 0.400391C13.7146 0.400391 13.9499 0.512439 14.1235 0.711924L21.5295 9.23387C21.7028 9.4336 21.8002 9.70435 21.8002 9.98664C21.8002 10.2689 21.7028 10.5397 21.5295 10.7394L14.1235 19.2614C14.0387 19.366 13.9365 19.45 13.823 19.5082C13.7094 19.5664 13.5868 19.5977 13.4625 19.6002C13.3382 19.6027 13.2147 19.5764 13.0995 19.5229C12.9842 19.4693 12.8795 19.3895 12.7916 19.2884C12.7037 19.1872 12.6344 19.0667 12.5878 18.9341C12.5412 18.8015 12.5184 18.6594 12.5206 18.5164C12.5228 18.3733 12.55 18.2323 12.6006 18.1016C12.6512 17.9709 12.7241 17.8533 12.8151 17.7558L18.6411 11.0519H1.12594C0.880421 11.0519 0.644953 10.9396 0.471341 10.7399C0.297729 10.5401 0.200195 10.2692 0.200195 9.98664C0.200195 9.70412 0.297729 9.43317 0.471341 9.2334C0.644953 9.03363 0.880421 8.92139 1.12594 8.92139H18.6411L12.8151 2.21747C12.6417 2.01773 12.5443 1.74699 12.5443 1.4647C12.5443 1.18241 12.6417 0.911658 12.8151 0.711924Z" fill="#0D7211"/>
</svg>
