<svg width="20" height="20" viewBox="0 0 20 20" fill="none" xmlns="http://www.w3.org/2000/svg">
<path d="M3.33337 13.3333H8.01004L7.07421 16.1391C6.90587 16.6458 6.99087 17.2074 7.30337 17.6408C7.61587 18.0741 8.12254 18.3333 8.65671 18.3333H10C10.2475 18.3333 10.4817 18.2233 10.6409 18.0333L14.5575 13.3333H16.6667C17.5859 13.3333 18.3334 12.5858 18.3334 11.6666V4.16659C18.3334 3.24742 17.5859 2.49992 16.6667 2.49992H5.57754C5.23847 2.50104 4.90772 2.60505 4.62903 2.79819C4.35033 2.99133 4.13682 3.2645 4.01671 3.58159L1.71921 9.70742C1.68432 9.80099 1.66654 9.90006 1.66671 9.99992V11.6666C1.66671 12.5858 2.41421 13.3333 3.33337 13.3333ZM16.6667 11.6666H15V4.16659H16.6667V11.6666ZM3.33337 10.1508L5.57754 4.16659H13.3334V12.1983L9.61004 16.6666H8.65504L9.95671 12.7641C9.99896 12.6388 10.0107 12.5053 9.99109 12.3746C9.97143 12.2438 9.92089 12.1197 9.84366 12.0124C9.76642 11.9051 9.66473 11.8178 9.547 11.7576C9.42927 11.6975 9.29891 11.6663 9.16671 11.6666H3.33337V10.1508Z" fill="#0D7211"/>
</svg>
