<svg width="20" height="20" viewBox="0 0 20 20" fill="none" xmlns="http://www.w3.org/2000/svg">
<path d="M16.6666 6.66675H11.99L12.9258 3.86091C13.0941 3.35425 13.0091 2.79258 12.6966 2.35925C12.3841 1.92591 11.8775 1.66675 11.3433 1.66675H9.99996C9.75246 1.66675 9.51829 1.77675 9.35913 1.96675L5.44246 6.66675H3.33329C2.41413 6.66675 1.66663 7.41425 1.66663 8.33341V15.8334C1.66663 16.7526 2.41413 17.5001 3.33329 17.5001H14.4225C14.7615 17.499 15.0923 17.3949 15.371 17.2018C15.6497 17.0087 15.8632 16.7355 15.9833 16.4184L18.2808 10.2926C18.3157 10.199 18.3335 10.0999 18.3333 10.0001V8.33341C18.3333 7.41425 17.5858 6.66675 16.6666 6.66675ZM3.33329 8.33341H4.99996V15.8334H3.33329V8.33341ZM16.6666 9.84925L14.4225 15.8334H6.66663V7.80175L10.39 3.33341H11.345L10.0433 7.23591C10.001 7.36118 9.98925 7.49471 10.0089 7.62544C10.0286 7.75617 10.0791 7.88032 10.1563 7.98762C10.2336 8.09491 10.3353 8.18224 10.453 8.24238C10.5707 8.30252 10.7011 8.33373 10.8333 8.33341H16.6666V9.84925Z" fill="#0D7211"/>
</svg>
