<svg width="20" height="21" viewBox="0 0 20 21" fill="none" xmlns="http://www.w3.org/2000/svg">
<path d="M8.33333 12.1667L17.5 3M8.33333 12.1667L11.25 18C11.2866 18.0798 11.3453 18.1474 11.4191 18.1948C11.493 18.2422 11.5789 18.2674 11.6667 18.2674C11.7544 18.2674 11.8403 18.2422 11.9142 18.1948C11.9881 18.1474 12.0468 18.0798 12.0833 18L17.5 3M8.33333 12.1667L2.5 9.25C2.42021 9.21344 2.3526 9.15474 2.3052 9.08088C2.2578 9.00701 2.2326 8.9211 2.2326 8.83333C2.2326 8.74557 2.2578 8.65965 2.3052 8.58579C2.3526 8.51193 2.42021 8.45323 2.5 8.41667L17.5 3" stroke="#0D7211" stroke-width="2" stroke-linecap="round" stroke-linejoin="round"/>
</svg>
