<svg width="32" height="32" viewBox="0 0 32 32" fill="none" xmlns="http://www.w3.org/2000/svg">
<path d="M24 20.9639C22.9867 20.9639 22.08 21.3253 21.3867 21.8916L11.88 16.8916C11.9467 16.6145 12 16.3373 12 16.0482C12 15.759 11.9467 15.4819 11.88 15.2048L21.28 10.253C22 10.8554 22.9467 11.2289 24 11.2289C26.2133 11.2289 28 9.61446 28 7.61446C28 5.61446 26.2133 4 24 4C21.7867 4 20 5.61446 20 7.61446C20 7.90361 20.0533 8.18072 20.12 8.45783L10.72 13.4096C10 12.8072 9.05333 12.4337 8 12.4337C5.78667 12.4337 4 14.0482 4 16.0482C4 18.0482 5.78667 19.6627 8 19.6627C9.05333 19.6627 10 19.2892 10.72 18.6867L20.2133 23.6988C20.1467 23.9518 20.1067 24.2169 20.1067 24.4819C20.1067 26.4217 21.8533 28 24 28C26.1467 28 27.8933 26.4217 27.8933 24.4819C27.8933 22.5422 26.1467 20.9639 24 20.9639ZM24 6.40964C24.7333 6.40964 25.3333 6.95181 25.3333 7.61446C25.3333 8.27711 24.7333 8.81928 24 8.81928C23.2667 8.81928 22.6667 8.27711 22.6667 7.61446C22.6667 6.95181 23.2667 6.40964 24 6.40964ZM8 17.253C7.26667 17.253 6.66667 16.7108 6.66667 16.0482C6.66667 15.3855 7.26667 14.8434 8 14.8434C8.73333 14.8434 9.33333 15.3855 9.33333 16.0482C9.33333 16.7108 8.73333 17.253 8 17.253ZM24 25.7108C23.2667 25.7108 22.6667 25.1687 22.6667 24.506C22.6667 23.8434 23.2667 23.3012 24 23.3012C24.7333 23.3012 25.3333 23.8434 25.3333 24.506C25.3333 25.1687 24.7333 25.7108 24 25.7108Z" fill="#888888"/>
</svg>
