<svg width="24" height="23" viewBox="0 0 24 23" fill="none" xmlns="http://www.w3.org/2000/svg">
<path d="M14.4144 9.7096C16.4395 9.38535 18.2977 8.65862 19.7778 7.612V5.0992H4.22222V7.612C5.70228 8.65866 7.56046 9.38539 9.58556 9.7096C9.82814 9.40257 10.1793 9.14727 10.6034 8.96967C11.0275 8.79208 11.5094 8.69852 12 8.69852C12.4906 8.69852 12.9725 8.79208 13.3966 8.96967C13.8207 9.14727 14.1719 9.40257 14.4144 9.7096ZM14.6456 11.3096C14.4655 11.7129 14.1123 12.0646 13.6369 12.3141C13.1615 12.5636 12.5883 12.6981 12 12.6981C11.4117 12.6981 10.8385 12.5636 10.3631 12.3141C9.88767 12.0646 9.5345 11.7129 9.35444 11.3096C7.50351 11.0414 5.75341 10.4918 4.22111 9.6976V17.8992H19.7767V9.6968C18.2451 10.4911 16.4958 11.0409 14.6456 11.3096ZM3.11111 3.5H20.8889C21.1836 3.5 21.4662 3.58429 21.6746 3.73431C21.8829 3.88434 22 4.08783 22 4.3V18.7C22 18.9122 21.8829 19.1157 21.6746 19.2657C21.4662 19.4157 21.1836 19.5 20.8889 19.5H3.11111C2.81643 19.5 2.53381 19.4157 2.32544 19.2657C2.11706 19.1157 2 18.9122 2 18.7V4.3C2 4.08783 2.11706 3.88434 2.32544 3.73431C2.53381 3.58429 2.81643 3.5 3.11111 3.5Z" fill="#0D7211"/>
</svg>
