<svg width="24" height="25" viewBox="0 0 24 25" fill="none" xmlns="http://www.w3.org/2000/svg">
<path d="M3 12.5H12V14H3V12.5ZM1.5 8.75H9V10.25H1.5V8.75Z" fill="#0D7211"/>
<path d="M22.4388 12.9545L20.1888 7.7045C20.131 7.56956 20.0349 7.45455 19.9124 7.37375C19.7899 7.29295 19.6463 7.24992 19.4995 7.25H17.2495V5.75C17.2495 5.55109 17.1705 5.36032 17.0299 5.21967C16.8892 5.07902 16.6984 5 16.4995 5H4.49952V6.5H15.7495V15.917C15.4078 16.1154 15.1087 16.3796 14.8695 16.6942C14.6303 17.0088 14.4558 17.3676 14.356 17.75H9.64302C9.46047 17.043 9.02635 16.4269 8.42201 16.017C7.81768 15.6072 7.08463 15.4319 6.36027 15.5239C5.63591 15.6159 4.96997 15.9689 4.48728 16.5168C4.00459 17.0647 3.73828 17.7698 3.73828 18.5C3.73828 19.2302 4.00459 19.9353 4.48728 20.4832C4.96997 21.0311 5.63591 21.3841 6.36027 21.4761C7.08463 21.5681 7.81768 21.3928 8.42201 20.983C9.02635 20.5731 9.46047 19.957 9.64302 19.25H14.356C14.5192 19.8937 14.8923 20.4646 15.4164 20.8724C15.9404 21.2802 16.5855 21.5016 17.2495 21.5016C17.9136 21.5016 18.5586 21.2802 19.0827 20.8724C19.6067 20.4646 19.9799 19.8937 20.143 19.25H21.7495C21.9484 19.25 22.1392 19.171 22.2799 19.0303C22.4205 18.8897 22.4995 18.6989 22.4995 18.5V13.25C22.4996 13.1484 22.4789 13.0479 22.4388 12.9545ZM6.74952 20C6.45285 20 6.16284 19.912 5.91616 19.7472C5.66949 19.5824 5.47723 19.3481 5.3637 19.074C5.25017 18.7999 5.22046 18.4983 5.27834 18.2074C5.33622 17.9164 5.47908 17.6491 5.68886 17.4393C5.89864 17.2296 6.16591 17.0867 6.45688 17.0288C6.74785 16.9709 7.04945 17.0006 7.32354 17.1142C7.59763 17.2277 7.8319 17.42 7.99672 17.6666C8.16155 17.9133 8.24952 18.2033 8.24952 18.5C8.24912 18.8977 8.09096 19.279 7.80974 19.5602C7.52852 19.8414 7.14722 19.9996 6.74952 20ZM17.2495 8.75H19.0045L20.6125 12.5H17.2495V8.75ZM17.2495 20C16.9528 20 16.6628 19.912 16.4162 19.7472C16.1695 19.5824 15.9772 19.3481 15.8637 19.074C15.7502 18.7999 15.7205 18.4983 15.7783 18.2074C15.8362 17.9164 15.9791 17.6491 16.1889 17.4393C16.3986 17.2296 16.6659 17.0867 16.9569 17.0288C17.2479 16.9709 17.5495 17.0006 17.8235 17.1142C18.0976 17.2277 18.3319 17.42 18.4967 17.6666C18.6615 17.9133 18.7495 18.2033 18.7495 18.5C18.7491 18.8977 18.591 19.279 18.3097 19.5602C18.0285 19.8414 17.6472 19.9996 17.2495 20ZM20.9995 17.75H20.143C19.9778 17.1076 19.6041 16.5381 19.0804 16.1309C18.5568 15.7238 17.9128 15.5018 17.2495 15.5V14H20.9995V17.75Z" fill="#0D7211"/>
</svg>
