<svg width="24" height="25" viewBox="0 0 24 25" fill="none" xmlns="http://www.w3.org/2000/svg">
<path d="M19.7 7.5C19.7 6.4 18.71 5.5 17.5 5.5H14.2V7.5H17.5V10.15L13.672 14.5H9.8V9.5H5.4C2.969 9.5 1 11.29 1 13.5V16.5H3.2C3.2 18.16 4.674 19.5 6.5 19.5C8.326 19.5 9.8 18.16 9.8 16.5H14.728L19.7 10.85V7.5ZM3.2 14.5V13.5C3.2 12.4 4.19 11.5 5.4 11.5H7.6V14.5H3.2ZM6.5 17.5C5.895 17.5 5.4 17.05 5.4 16.5H7.6C7.6 17.05 7.105 17.5 6.5 17.5Z" fill="#0D7211"/>
<path d="M4.3 6.5H9.8V8.5H4.3V6.5ZM19.7 13.5C17.874 13.5 16.4 14.84 16.4 16.5C16.4 18.16 17.874 19.5 19.7 19.5C21.526 19.5 23 18.16 23 16.5C23 14.84 21.526 13.5 19.7 13.5ZM19.7 17.5C19.095 17.5 18.6 17.05 18.6 16.5C18.6 15.95 19.095 15.5 19.7 15.5C20.305 15.5 20.8 15.95 20.8 16.5C20.8 17.05 20.305 17.5 19.7 17.5Z" fill="#0D7211"/>
</svg>
