<svg width="24" height="24" viewBox="0 0 24 24" fill="none" xmlns="http://www.w3.org/2000/svg">
<path d="M16.0394 0L19.8926 7.60096H24.0002V10.3341H22.5998L21.6914 22.7468C21.6665 23.0883 21.5297 23.4067 21.3084 23.6388C21.087 23.8709 20.7971 23.9998 20.4962 24H3.50424C3.20334 23.9998 2.91348 23.8709 2.69211 23.6388C2.47074 23.4067 2.33402 23.0883 2.30904 22.7468L1.39944 10.3341H0.000244141V7.60096H4.10664L7.96104 0L10.0394 1.36659L6.87864 7.60096H17.1206L13.961 1.36659L16.0394 0ZM20.1914 10.3341H3.80784L4.60824 21.2668H19.391L20.1914 10.3341ZM13.2002 13.0673V18.5337H10.8002V13.0673H13.2002ZM8.40024 13.0673V18.5337H6.00024V13.0673H8.40024ZM18.0002 13.0673V18.5337H15.6002V13.0673H18.0002Z" fill="white"/>
</svg>
