<svg width="24" height="24" viewBox="0 0 24 24" fill="none" xmlns="http://www.w3.org/2000/svg">
<path d="M12 2.85C12.4137 2.85 12.8233 2.93148 13.2055 3.08978C13.5876 3.24808 13.9349 3.48011 14.2274 3.77261C14.5199 4.06512 14.7519 4.41237 14.9102 4.79455C15.0685 5.17672 15.15 5.58634 15.15 6C15.15 6.41366 15.0685 6.82328 14.9102 7.20545C14.7519 7.58763 14.5199 7.93488 14.2274 8.22739C13.9349 8.51989 13.5876 8.75192 13.2055 8.91022C12.8233 9.06852 12.4137 9.15 12 9.15C11.1646 9.15 10.3634 8.81813 9.77261 8.22739C9.18187 7.63665 8.85 6.83543 8.85 6C8.85 5.16457 9.18187 4.36335 9.77261 3.77261C10.3634 3.18187 11.1646 2.85 12 2.85ZM12 16.35C16.455 16.35 21.15 18.54 21.15 19.5V21.15H2.85V19.5C2.85 18.54 7.545 16.35 12 16.35ZM12 0C8.685 0 6 2.685 6 6C6 9.315 8.685 12 12 12C15.315 12 18 9.315 18 6C18 2.685 15.315 0 12 0ZM12 13.5C7.995 13.5 0 15.51 0 19.5V24H24V19.5C24 15.51 16.005 13.5 12 13.5Z" fill="white"/>
</svg>
