<svg width="20" height="20" viewBox="0 0 20 20" fill="none" xmlns="http://www.w3.org/2000/svg">
<g clip-path="url(#clip0_1_581)">
<path d="M10 20C15.5228 20 20 15.5228 20 10C20 4.47715 15.5228 0 10 0C4.47715 0 0 4.47715 0 10C0 15.5228 4.47715 20 10 20Z" fill="white"/>
<path d="M10.9718 10.7503H12.6082L12.92 8.57825H10.9736V7.16956C10.9736 6.57551 11.2464 5.99597 12.1173 5.99597H13V4.14706C12.4805 4.05699 11.9554 4.00783 11.4291 4C9.82636 4 8.77909 5.04007 8.77909 6.92381V8.57825H7V10.7503H8.78091V16H10.9736L10.9718 10.7503Z" fill="black"/>
</g>
<defs>
<clipPath id="clip0_1_581">
<rect width="20" height="20" fill="white"/>
</clipPath>
</defs>
</svg>
