<svg width="20" height="20" viewBox="0 0 20 20" fill="none" xmlns="http://www.w3.org/2000/svg">
<g clip-path="url(#clip0_1_585)">
<path d="M10 20C15.5228 20 20 15.5228 20 10C20 4.47715 15.5228 0 10 0C4.47715 0 0 4.47715 0 10C0 15.5228 4.47715 20 10 20Z" fill="white"/>
<path fill-rule="evenodd" clip-rule="evenodd" d="M10 5C11.3578 5 11.5284 5.0055 12.0615 5.03028C12.4763 5.03821 12.8867 5.1167 13.2752 5.26239C13.6072 5.3911 13.9088 5.58763 14.1606 5.83943C14.4124 6.09122 14.6089 6.39275 14.7376 6.72477C14.883 7.11239 14.9615 7.52188 14.9697 7.93578C14.9945 8.46881 15 8.63945 15 9.99725C15 11.355 14.9945 11.5257 14.9697 12.0587C14.9618 12.4735 14.8833 12.884 14.7376 13.2725C14.6089 13.6045 14.4124 13.906 14.1606 14.1578C13.9088 14.4096 13.6072 14.6061 13.2752 14.7349C12.8878 14.8812 12.4783 14.9606 12.0642 14.9697C11.5312 14.9945 11.3606 15 10.0028 15C8.64495 15 8.47431 14.9945 7.94128 14.9697C7.52646 14.9618 7.11601 14.8833 6.72752 14.7376C6.39551 14.6089 6.09397 14.4124 5.84218 14.1606C5.59038 13.9088 5.39386 13.6072 5.26514 13.2752C5.11882 12.8878 5.0394 12.4783 5.03027 12.0642C5.0055 11.5312 5 11.3606 5 10.0028C5 8.64495 5.0055 8.47431 5.03027 7.94128C5.03821 7.52646 5.1167 7.11601 5.26238 6.72752C5.39078 6.395 5.58717 6.09293 5.83898 5.84064C6.09079 5.58836 6.39249 5.39141 6.72477 5.26239C7.11239 5.11701 7.52188 5.03852 7.93578 5.03028C8.47156 5.0055 8.6422 5 10 5ZM12.0183 5.93028C11.4917 5.90642 11.333 5.90092 10 5.90092C8.66697 5.90092 8.50642 5.90642 7.98165 5.93028C7.66408 5.93353 7.34942 5.99124 7.05137 6.10092C6.83537 6.1842 6.6392 6.3118 6.4755 6.4755C6.3118 6.6392 6.1842 6.83537 6.10092 7.05138C5.99114 7.34879 5.93311 7.66281 5.92936 7.97982C5.90551 8.50642 5.9 8.66514 5.9 9.99817C5.9 11.3312 5.90551 11.4917 5.92936 12.0165C5.93269 12.3348 5.99073 12.6501 6.10092 12.9486C6.1842 13.1646 6.3118 13.3608 6.4755 13.5245C6.6392 13.6882 6.83537 13.8158 7.05137 13.8991C7.34879 14.0089 7.66281 14.0669 7.97982 14.0706C8.50642 14.0945 8.66514 14.1 9.99817 14.1C11.3312 14.1 11.4917 14.0945 12.0165 14.0706C12.3348 14.0673 12.6501 14.0093 12.9486 13.8991C13.1646 13.8158 13.3608 13.6882 13.5245 13.5245C13.6882 13.3608 13.8158 13.1646 13.8991 12.9486C14.0089 12.6512 14.0669 12.3372 14.0706 12.0202C14.0945 11.4936 14.1 11.3349 14.1 10.0018C14.1 8.66881 14.0945 8.50826 14.0706 7.98349C14.0673 7.66525 14.0093 7.34995 13.8991 7.05138C13.8158 6.83537 13.6882 6.6392 13.5245 6.4755C13.3608 6.3118 13.1646 6.1842 12.9486 6.10092C12.6512 5.99145 12.3371 5.93374 12.0202 5.93028H12.0183ZM10 11.667C10.3297 11.667 10.652 11.5692 10.9261 11.386C11.2003 11.2029 11.4139 10.9425 11.5401 10.6379C11.6663 10.3333 11.6993 9.99815 11.6349 9.67479C11.5706 9.35143 11.4119 9.0544 11.1787 8.82127C10.9456 8.58814 10.6486 8.42938 10.3252 8.36506C10.0019 8.30074 9.66668 8.33375 9.36208 8.45992C9.05748 8.58609 8.79713 8.79975 8.61396 9.07388C8.4308 9.34801 8.33303 9.6703 8.33303 10C8.33327 10.442 8.50897 10.8659 8.82154 11.1785C9.13411 11.491 9.55797 11.6667 10 11.667ZM10 7.43211C10.5081 7.43211 11.0047 7.58277 11.4272 7.86503C11.8496 8.1473 12.1788 8.54849 12.3733 9.01788C12.5677 9.48727 12.6186 10.0038 12.5194 10.5021C12.4203 11.0004 12.1757 11.4581 11.8164 11.8173C11.4572 12.1766 10.9994 12.4212 10.5011 12.5204C10.0028 12.6195 9.48635 12.5686 9.01696 12.3742C8.54757 12.1798 8.14638 11.8505 7.86411 11.4281C7.58185 11.0056 7.43119 10.509 7.43119 10.0009C7.43119 9.31963 7.70183 8.66624 8.18358 8.1845C8.66532 7.70275 9.31871 7.43211 10 7.43211ZM13.2688 7.33119C13.2688 7.44986 13.2336 7.56587 13.1677 7.66453C13.1018 7.7632 13.0081 7.84011 12.8984 7.88552C12.7888 7.93093 12.6681 7.94281 12.5518 7.91966C12.4354 7.89651 12.3285 7.83937 12.2445 7.75546C12.1606 7.67155 12.1035 7.56464 12.0803 7.44825C12.0572 7.33186 12.0691 7.21122 12.1145 7.10158C12.1599 6.99195 12.2368 6.89824 12.3355 6.83231C12.4341 6.76638 12.5501 6.73119 12.6688 6.73119C12.8279 6.73119 12.9805 6.79441 13.0931 6.90693C13.2056 7.01945 13.2688 7.17206 13.2688 7.33119Z" fill="black"/>
</g>
<defs>
<clipPath id="clip0_1_585">
<rect width="20" height="20" fill="white"/>
</clipPath>
</defs>
</svg>
