<svg width="20" height="20" viewBox="0 0 20 20" fill="none" xmlns="http://www.w3.org/2000/svg">
<g clip-path="url(#clip0_1_589)">
<path d="M10 20C15.5228 20 20 15.5228 20 10C20 4.47715 15.5228 0 10 0C4.47715 0 0 4.47715 0 10C0 15.5228 4.47715 20 10 20Z" fill="white"/>
<path fill-rule="evenodd" clip-rule="evenodd" d="M4.75602 9.87491C7.70894 8.60476 9.67788 7.76732 10.6628 7.36259C13.4759 6.20809 14.0635 6.00759 14.4413 6.00012C14.5815 5.99744 14.7189 6.03821 14.8343 6.11669C14.9153 6.18563 14.9669 6.28223 14.9788 6.38714C14.9992 6.51761 15.0049 6.6499 14.9958 6.78161C14.8438 8.36696 14.1835 12.1988 13.8481 13.9698C13.7064 14.7158 13.4268 14.9704 13.1557 14.9956C12.5681 15.0487 12.1166 14.6114 11.5498 14.243C10.6581 13.6658 10.1546 13.3105 9.28931 12.7435C8.28895 12.0907 8.93791 11.7354 9.50752 11.1516C9.65677 10.9986 12.247 8.67097 12.298 8.46022C12.3047 8.42909 12.3039 8.39685 12.2957 8.36607C12.2875 8.3353 12.2721 8.30685 12.2507 8.28303C12.2197 8.2639 12.1846 8.25217 12.1482 8.24877C12.1118 8.24537 12.0751 8.25039 12.041 8.26345C11.9522 8.28272 10.5284 9.21186 7.7694 11.0509C7.3651 11.325 6.9989 11.4587 6.6708 11.4519C6.309 11.4435 5.61375 11.2495 5.09609 11.0788C4.46224 10.8755 3.96253 10.7683 4.00221 10.426C4.02551 10.247 4.27678 10.0633 4.75602 9.87491Z" fill="black"/>
</g>
<defs>
<clipPath id="clip0_1_589">
<rect width="20" height="20" fill="white"/>
</clipPath>
</defs>
</svg>
