<svg width="20" height="20" viewBox="0 0 20 20" fill="none" xmlns="http://www.w3.org/2000/svg">
<path d="M10 20C15.5228 20 20 15.5228 20 10C20 4.47715 15.5228 0 10 0C4.47715 0 0 4.47715 0 10C0 15.5228 4.47715 20 10 20Z" fill="white"/>
<path d="M14.7909 7.09308C14.734 6.88115 14.6224 6.68791 14.4673 6.53276C14.3121 6.3776 14.1189 6.26598 13.9069 6.2091C13.128 6 10.0004 6 10.0004 6C10.0004 6 6.87292 6 6.09306 6.2091C5.88138 6.26648 5.68841 6.37826 5.53333 6.53334C5.37825 6.68842 5.26647 6.8814 5.2091 7.09308C5 7.87295 5 9.5 5 9.5C5 9.5 5 11.1271 5.2091 11.9069C5.26647 12.1186 5.37825 12.3116 5.53333 12.4667C5.68841 12.6217 5.88138 12.7335 6.09306 12.7909C6.87292 13 10.0004 13 10.0004 13C10.0004 13 13.1271 13 13.9069 12.7909C14.1189 12.734 14.3121 12.6224 14.4673 12.4672C14.6224 12.3121 14.734 12.1188 14.7909 11.9069C15 11.1271 15 9.5 15 9.5C15 9.5 15 7.87295 14.7909 7.09308ZM8.99982 10.9996V8.00039L11.6024 9.5L8.99982 10.9996Z" fill="black"/>
</svg>
